<svg width="480.9" height="97.786" viewBox="0 0 480.9 97.786" xmlns="http://www.w3.org/2000/svg"><g id="svgGroup" stroke-linecap="round" fill-rule="evenodd" font-size="9pt" stroke="#000" stroke-width="0.25mm" fill="#000" style="stroke:#000;stroke-width:0.25mm;fill:#000"><path d="M 143 76.643 L 125.7 86.643 L 117 81.643 L 134.3 71.643 L 143 76.643 L 134.3 71.643 L 134.3 57.643 L 143 62.643 L 143 76.643 L 143 86.643 L 134.3 81.643 L 134.3 71.643 L 143 76.643 L 143 62.643 L 125.7 72.643 L 125.7 86.643 L 143 76.643 L 143 86.643 L 151.6 81.643 L 151.6 33.643 Q 151.6 32.205 151.264 31.091 A 4.877 4.877 0 0 0 149 28.143 A 4.678 4.678 0 0 0 146.624 27.5 Q 145.547 27.5 144.363 27.969 A 9.851 9.851 0 0 0 143 28.643 A 10.907 10.907 0 0 1 143.638 28.295 Q 146.647 26.785 149 28.143 L 140.4 23.143 Q 138.311 21.938 135.64 22.992 A 10.443 10.443 0 0 0 134.3 23.643 L 108.3 38.643 L 117 43.643 L 143 28.643 L 117 43.643 L 117 53.643 L 143 38.643 L 143 52.643 L 125.7 62.643 L 143 52.643 L 143 38.643 L 134.3 33.643 L 134.3 47.643 L 143 52.643 L 134.3 47.643 L 117 57.643 Q 114.7 58.943 112.7 61.493 Q 110.7 64.043 109.5 66.993 A 17.701 17.701 0 0 0 108.757 69.215 A 13.624 13.624 0 0 0 108.3 72.643 L 108.3 86.643 Q 108.3 88.08 108.636 89.195 A 4.877 4.877 0 0 0 110.9 92.143 L 119.6 97.143 Q 121.689 98.348 124.36 97.294 A 10.443 10.443 0 0 0 125.7 96.643 L 134.3 91.643 Q 136.6 90.343 138.6 87.793 Q 140.6 85.243 141.8 82.243 Q 142.363 80.837 142.661 79.518 A 13.002 13.002 0 0 0 143 76.643 Z M 394.3 43.643 A 13.624 13.624 0 0 1 394.757 40.215 A 17.701 17.701 0 0 1 395.5 37.993 Q 396.7 35.043 398.7 32.493 Q 400.7 29.943 403 28.643 L 411.6 23.643 A 10.443 10.443 0 0 1 412.94 22.992 Q 415.611 21.938 417.7 23.143 L 426.3 28.143 Q 423.947 26.785 420.938 28.295 A 10.907 10.907 0 0 0 420.3 28.643 A 9.851 9.851 0 0 1 421.663 27.969 Q 422.847 27.5 423.924 27.5 A 4.678 4.678 0 0 1 426.3 28.143 A 4.877 4.877 0 0 1 428.564 31.091 Q 428.9 32.205 428.9 33.643 L 428.9 77.643 L 420.3 82.643 L 420.3 38.643 L 403 48.643 L 403 38.643 L 394.3 43.643 L 394.3 97.643 L 403 92.643 L 403 48.643 L 394.3 43.643 L 385.6 38.643 L 385.6 92.643 L 394.3 97.643 L 394.3 43.643 L 403 48.643 Q 403 45.943 404.2 42.993 Q 405.4 40.043 407.35 37.493 Q 409.3 34.943 411.6 33.643 L 420.3 28.643 L 411.6 33.643 L 411.6 77.643 L 420.3 82.643 L 420.3 38.643 L 411.6 33.643 Q 409.3 34.943 407.35 37.493 Q 405.4 40.043 404.2 42.993 Q 403 45.943 403 48.643 M 186.3 71.643 L 195 76.643 L 177.7 86.643 L 169 81.643 L 186.3 71.643 L 186.3 37.643 L 195 42.643 L 195 17.643 L 186.3 12.643 L 195 7.643 L 203.6 12.643 L 195 17.643 L 186.3 12.643 L 186.3 37.643 L 186.3 71.643 L 195 76.643 L 195 42.643 L 177.7 52.643 L 177.7 86.643 L 195 76.643 L 186.3 71.643 Q 186.3 73.08 186.636 74.195 A 4.877 4.877 0 0 0 188.9 77.143 L 197.6 82.143 A 4.678 4.678 0 0 0 199.976 82.786 Q 201.053 82.786 202.237 82.317 A 9.851 9.851 0 0 0 203.6 81.643 L 203.6 12.643 L 195 17.643 L 195 42.643 L 186.3 37.643 L 177.7 42.643 L 186.3 37.643 M 277.3 6.143 Q 280.7 4.143 283.35 5.643 A 4.925 4.925 0 0 1 285.701 8.738 Q 286 9.799 286 11.143 L 286 75.143 L 277.3 80.143 L 277.3 60.143 L 255.7 72.643 L 255.7 92.643 L 247 97.643 L 247 33.643 L 247 97.643 L 238.3 92.643 L 238.3 28.643 A 13.624 13.624 0 0 1 238.757 25.215 A 17.701 17.701 0 0 1 239.5 22.993 Q 240.7 20.043 242.7 17.493 Q 244.7 14.943 247 13.643 L 268.6 1.143 A 10.443 10.443 0 0 1 269.94 0.492 Q 272.611 -0.562 274.7 0.643 L 283.4 5.643 A 4.957 4.957 0 0 0 280.957 5 Q 279.243 5 277.3 6.143 Z M 312 12.643 L 312 86.643 L 324.9 79.143 L 324.9 89.143 L 312 96.643 A 10.443 10.443 0 0 1 310.66 97.294 Q 307.989 98.348 305.9 97.143 L 297.2 92.143 A 4.877 4.877 0 0 1 294.936 89.195 Q 294.6 88.08 294.6 86.643 L 294.6 12.643 L 303.3 17.643 L 303.3 91.643 L 303.3 17.643 L 312 12.643 Z M 99.6 33.643 L 99.6 77.643 L 91 82.643 L 91 38.643 L 73.7 48.643 L 73.7 92.643 L 65 97.643 L 65 17.643 L 73.7 12.643 L 73.7 48.643 L 65 43.643 A 13.624 13.624 0 0 1 65.457 40.215 A 17.701 17.701 0 0 1 66.2 37.993 Q 67.4 35.043 69.4 32.493 Q 71.4 29.943 73.7 28.643 L 82.3 23.643 A 10.443 10.443 0 0 1 83.64 22.992 Q 86.311 21.938 88.4 23.143 L 97 28.143 Q 94.647 26.785 91.638 28.295 A 10.907 10.907 0 0 0 91 28.643 A 9.851 9.851 0 0 1 92.363 27.969 Q 93.547 27.5 94.624 27.5 A 4.678 4.678 0 0 1 97 28.143 A 4.877 4.877 0 0 1 99.264 31.091 Q 99.6 32.205 99.6 33.643 Z M 39 6.143 Q 42.4 4.143 45.05 5.643 A 4.925 4.925 0 0 1 47.401 8.738 Q 47.7 9.799 47.7 11.143 L 47.7 69.143 A 12.499 12.499 0 0 1 47.35 72.007 Q 47.058 73.248 46.522 74.567 A 20.878 20.878 0 0 1 46.45 74.743 Q 45.2 77.743 43.25 80.293 A 16.842 16.842 0 0 1 41.345 82.409 A 12.458 12.458 0 0 1 39 84.143 L 17.4 96.643 A 10.443 10.443 0 0 1 16.06 97.294 Q 13.389 98.348 11.3 97.143 L 2.6 92.143 A 4.877 4.877 0 0 1 0.336 89.195 Q 0 88.08 0 86.643 L 0 28.643 A 13.624 13.624 0 0 1 0.457 25.215 A 17.701 17.701 0 0 1 1.2 22.993 Q 2.4 20.043 4.4 17.493 Q 6.4 14.943 8.7 13.643 L 30.3 1.143 A 10.443 10.443 0 0 1 31.64 0.492 Q 34.311 -0.562 36.4 0.643 L 45.1 5.643 A 4.957 4.957 0 0 0 42.657 5 Q 40.943 5 39 6.143 Z M 446.3 87.643 L 459.3 80.143 L 459.3 50.143 L 446.3 57.643 L 446.3 47.643 L 480.9 27.643 L 480.9 37.643 L 467.9 45.143 L 467.9 75.143 L 480.9 67.643 L 480.9 77.643 L 446.3 97.643 L 446.3 87.643 Z M 65 97.643 L 65 17.643 L 73.7 12.643 L 65 7.643 L 56.3 12.643 L 65 17.643 L 56.3 12.643 L 56.3 92.643 L 65 97.643 Z M 376.9 33.643 L 376.9 71.643 A 13.002 13.002 0 0 1 376.561 74.518 Q 376.263 75.837 375.7 77.243 Q 374.5 80.243 372.55 82.793 A 16.842 16.842 0 0 1 370.645 84.909 A 12.458 12.458 0 0 1 368.3 86.643 L 351 96.643 A 10.443 10.443 0 0 1 349.66 97.294 Q 346.989 98.348 344.9 97.143 L 336.2 92.143 A 4.877 4.877 0 0 1 333.936 89.195 Q 333.6 88.08 333.6 86.643 L 333.6 48.643 A 13.624 13.624 0 0 1 334.057 45.215 A 17.701 17.701 0 0 1 334.8 42.993 Q 336 40.043 338 37.493 Q 340 34.943 342.3 33.643 L 359.6 23.643 A 10.443 10.443 0 0 1 360.94 22.992 Q 363.611 21.938 365.7 23.143 L 374.3 28.143 Q 371.947 26.785 368.938 28.295 A 10.907 10.907 0 0 0 368.3 28.643 A 9.851 9.851 0 0 1 369.663 27.969 Q 370.847 27.5 371.924 27.5 A 4.678 4.678 0 0 1 374.3 28.143 A 4.877 4.877 0 0 1 376.564 31.091 Q 376.9 32.205 376.9 33.643 Z M 17.4 86.643 L 39 74.143 L 39 16.143 L 30.3 11.143 L 30.3 69.143 L 39 74.143 L 30.3 69.143 L 8.7 81.643 L 17.4 86.643 Z M 177.7 86.643 L 195 76.643 L 195 42.643 Q 195 41.205 194.664 40.091 A 4.877 4.877 0 0 0 192.4 37.143 A 4.711 4.711 0 0 0 190.006 36.5 Q 188.587 36.5 186.965 37.29 A 11.458 11.458 0 0 0 186.3 37.643 A 10.443 10.443 0 0 1 187.64 36.992 Q 190.311 35.938 192.4 37.143 L 183.7 32.143 A 4.678 4.678 0 0 0 181.324 31.5 Q 180.247 31.5 179.063 31.969 A 9.851 9.851 0 0 0 177.7 32.643 L 169 37.643 Q 166.7 38.943 164.7 41.493 Q 162.7 44.043 161.5 46.993 A 17.701 17.701 0 0 0 160.757 49.215 A 13.624 13.624 0 0 0 160.3 52.643 L 160.3 86.643 Q 160.3 88.08 160.636 89.195 A 4.877 4.877 0 0 0 162.9 92.143 L 171.6 97.143 Q 173.689 98.348 176.36 97.294 A 10.443 10.443 0 0 0 177.7 96.643 L 186.3 91.643 Q 188.6 90.343 190.6 87.793 Q 192.6 85.243 193.8 82.243 Q 194.363 80.837 194.661 79.518 A 13.002 13.002 0 0 0 195 76.643 M 17.4 28.643 L 17.4 86.643 L 39 74.143 L 39 16.143 L 17.4 28.643 Z M 294.6 86.643 L 294.6 12.643 L 303.3 17.643 L 303.3 91.643 M 351 86.643 L 368.3 76.643 L 368.3 38.643 L 359.6 33.643 L 359.6 71.643 L 368.3 76.643 L 359.6 71.643 L 342.3 81.643 L 351 86.643 Z M 446.3 57.643 L 446.3 47.643 L 480.9 27.643 L 472.3 22.643 L 437.6 42.643 L 446.3 47.643 L 437.6 42.643 L 437.6 52.643 L 446.3 57.643 Z M 255.7 62.643 L 277.3 50.143 L 277.3 16.143 L 255.7 28.643 L 255.7 62.643 Z M 8.7 91.643 L 8.7 33.643 L 8.7 91.643 Z M 351 48.643 L 351 86.643 L 368.3 76.643 L 368.3 38.643 L 351 48.643 Z M 91 82.643 L 91 38.643 L 82.3 33.643 L 82.3 77.643 L 91 82.643 Z M 459.3 9.143 L 468 14.143 Q 466.2 13.143 463.6 14.643 A 8.506 8.506 0 0 1 464.591 14.149 Q 466.545 13.34 467.95 14.143 A 3.144 3.144 0 0 1 469.328 15.802 Q 469.7 16.76 469.7 18.143 A 11.01 11.01 0 0 1 468.873 22.268 A 14.256 14.256 0 0 1 467.95 24.143 A 13.679 13.679 0 0 1 466.021 26.733 A 10.877 10.877 0 0 1 463.6 28.643 A 8.506 8.506 0 0 1 462.609 29.137 Q 460.655 29.946 459.25 29.143 A 3.144 3.144 0 0 1 457.872 27.484 Q 457.5 26.526 457.5 25.143 Q 457.5 22.143 459.25 19.143 A 14.256 14.256 0 0 0 458.327 21.018 A 11.01 11.01 0 0 0 457.5 25.143 A 7.721 7.721 0 0 0 457.62 26.557 Q 457.76 27.306 458.063 27.873 A 3.078 3.078 0 0 0 459.3 29.143 L 450.6 24.143 Q 448.9 23.143 448.9 20.143 A 11.324 11.324 0 0 1 449.74 15.924 A 14.507 14.507 0 0 1 450.6 14.143 A 12.545 12.545 0 0 1 452.688 11.379 A 10.614 10.614 0 0 1 455 9.643 Q 457.6 8.143 459.3 9.143 Z M 277.3 50.143 L 277.3 16.143 L 268.6 11.143 L 268.6 45.143 L 277.3 50.143 Z M 459.3 50.143 L 450.6 45.143 L 450.6 75.143 L 459.3 80.143 L 459.3 50.143 Z M 342.3 91.643 L 342.3 53.643 L 342.3 91.643 Z M 268.6 45.143 L 277.3 50.143 L 255.7 62.643 L 247 57.643 L 268.6 45.143 Z M 169 91.643 L 169 57.643 L 169 91.643 Z M 277.3 80.143 L 277.3 60.143 L 268.6 55.143 L 268.6 75.143 L 277.3 80.143 Z M 459.3 80.143 L 450.6 75.143 L 437.6 82.643 L 446.3 87.643 L 459.3 80.143 Z M 312 86.643 L 324.9 79.143 L 316.3 74.143 L 303.3 81.643 L 312 86.643 Z M 467.9 75.143 L 480.9 67.643 L 472.3 62.643 L 459.3 70.143 L 467.9 75.143 Z M 17.4 18.643 L 39 6.143 L 17.4 18.643 Z M 255.7 18.643 L 277.3 6.143 L 255.7 18.643 Z M 394.3 43.643 L 385.6 38.643 L 394.3 33.643 L 403 38.643 L 394.3 43.643 Z M 117 43.643 L 108.3 38.643 L 108.3 48.643 L 117 53.643 L 117 43.643 Z M 446.3 97.643 L 446.3 87.643 L 437.6 82.643 L 437.6 92.643 L 446.3 97.643 Z M 351 38.643 L 368.3 28.643 L 351 38.643 Z M 303.3 17.643 L 312 12.643 L 303.3 7.643 L 294.6 12.643 M 117 91.643 L 117 77.643 L 117 91.643 Z M 82.3 33.643 L 91 28.643 L 82.3 33.643 Z M 17.4 18.643 Q 15.1 19.943 13.1 22.493 Q 11.1 25.043 9.9 27.993 Q 8.7 30.943 8.7 33.643 M 177.7 42.643 Q 175.4 43.943 173.4 46.493 Q 171.4 49.043 170.2 51.993 Q 169 54.943 169 57.643 M 255.7 18.643 Q 253.4 19.943 251.4 22.493 Q 249.4 25.043 248.2 27.993 Q 247 30.943 247 33.643 M 351 38.643 Q 348.7 39.943 346.7 42.493 Q 344.7 45.043 343.5 47.993 Q 342.3 50.943 342.3 53.643 M 125.7 62.643 Q 123.4 63.943 121.4 66.493 Q 119.4 69.043 118.2 71.993 Q 117 74.943 117 77.643 M 82.3 33.643 Q 80 34.943 78.05 37.493 Q 76.1 40.043 74.9 42.993 Q 73.7 45.943 73.7 48.643 M 9.036 94.195 A 4.877 4.877 0 0 0 11.3 97.143 A 4.695 4.695 0 0 1 9.735 95.696 Q 8.7 94.167 8.7 91.643 Q 8.7 93.08 9.036 94.195 Z M 117.336 94.195 A 4.877 4.877 0 0 0 119.6 97.143 A 4.695 4.695 0 0 1 118.035 95.696 Q 117 94.167 117 91.643 Q 117 93.08 117.336 94.195 Z M 169.336 94.195 A 4.877 4.877 0 0 0 171.6 97.143 A 4.695 4.695 0 0 1 170.035 95.696 Q 169 94.167 169 91.643 Q 169 93.08 169.336 94.195 Z M 303.3 91.643 Q 303.3 93.08 303.636 94.195 A 4.877 4.877 0 0 0 305.9 97.143 A 4.695 4.695 0 0 1 304.335 95.696 Q 303.3 94.167 303.3 91.643 Z M 342.636 94.195 A 4.877 4.877 0 0 0 344.9 97.143 A 4.695 4.695 0 0 1 343.335 95.696 Q 342.3 94.167 342.3 91.643 Q 342.3 93.08 342.636 94.195 Z M 459.25 19.143 A 13.679 13.679 0 0 1 461.179 16.553 A 10.877 10.877 0 0 1 463.6 14.643 A 11.214 11.214 0 0 0 460.427 17.414 A 14.488 14.488 0 0 0 459.25 19.143 Z M 199.976 82.786 A 4.678 4.678 0 0 1 197.6 82.143 A 4.695 4.695 0 0 1 196.035 80.696 Q 195 79.167 195 76.643 M 197.6 82.143 A 4.877 4.877 0 0 1 195.336 79.195 Q 195 78.08 195 76.643 M 8.7 33.643 A 13.624 13.624 0 0 1 9.157 30.215 A 17.701 17.701 0 0 1 9.9 27.993 M 247 33.643 A 13.624 13.624 0 0 1 247.457 30.215 A 17.701 17.701 0 0 1 248.2 27.993 M 73.7 48.643 A 13.624 13.624 0 0 1 74.157 45.215 A 17.701 17.701 0 0 1 74.9 42.993 M 403 48.643 A 13.624 13.624 0 0 1 403.457 45.215 A 17.701 17.701 0 0 1 404.2 42.993 M 169 57.643 A 13.624 13.624 0 0 1 169.457 54.215 A 17.701 17.701 0 0 1 170.2 51.993 M 342.3 53.643 A 13.624 13.624 0 0 1 342.757 50.215 A 17.701 17.701 0 0 1 343.5 47.993 M 117 77.643 A 13.624 13.624 0 0 1 117.457 74.215 A 17.701 17.701 0 0 1 118.2 71.993 M 173.4 46.493 A 17.71 17.71 0 0 1 175.274 44.439 A 12.908 12.908 0 0 1 177.7 42.643 M 346.7 42.493 A 17.71 17.71 0 0 1 348.574 40.439 A 12.908 12.908 0 0 1 351 38.643 M 13.1 22.493 A 17.71 17.71 0 0 1 14.974 20.439 A 12.908 12.908 0 0 1 17.4 18.643 M 251.4 22.493 A 17.71 17.71 0 0 1 253.274 20.439 A 12.908 12.908 0 0 1 255.7 18.643 M 121.4 66.493 A 17.71 17.71 0 0 1 123.274 64.439 A 12.908 12.908 0 0 1 125.7 62.643 M 78.05 37.493 A 16.842 16.842 0 0 1 79.955 35.377 A 12.458 12.458 0 0 1 82.3 33.643 M 407.35 37.493 A 16.842 16.842 0 0 1 409.255 35.377 A 12.458 12.458 0 0 1 411.6 33.643 M 9.9 27.993 Q 8.7 30.943 8.7 33.643 M 13.1 22.493 Q 11.1 25.043 9.9 27.993 M 74.9 42.993 Q 73.7 45.943 73.7 48.643 M 78.05 37.493 Q 76.1 40.043 74.9 42.993 M 118.2 71.993 Q 117 74.943 117 77.643 M 121.4 66.493 Q 119.4 69.043 118.2 71.993 M 170.2 51.993 Q 169 54.943 169 57.643 M 173.4 46.493 Q 171.4 49.043 170.2 51.993 M 248.2 27.993 Q 247 30.943 247 33.643 M 251.4 22.493 Q 249.4 25.043 248.2 27.993 M 343.5 47.993 Q 342.3 50.943 342.3 53.643 M 346.7 42.493 Q 344.7 45.043 343.5 47.993" vector-effect="non-scaling-stroke"/></g></svg>